<svg xmlns="http://www.w3.org/2000/svg" viewBox="0 0 300 100" width="300" height="100">
  <defs>
    <linearGradient id="goldGrad" x1="0%" y1="0%" x2="100%" y2="100%">
      <stop offset="0%" style="stop-color:#B8860B"/>
      <stop offset="50%" style="stop-color:#D4AF37"/>
      <stop offset="100%" style="stop-color:#B8860B"/>
    </linearGradient>
  </defs>
  <!-- Marco ornamental -->
  <rect x="10" y="10" width="80" height="80" rx="4" ry="4" fill="none" stroke="url(#goldGrad)" stroke-width="2.5"/>
  <rect x="16" y="16" width="68" height="68" rx="2" ry="2" fill="none" stroke="url(#goldGrad)" stroke-width="1"/>
  <!-- Esquinas decorativas -->
  <path d="M10,25 Q10,10 25,10" fill="none" stroke="url(#goldGrad)" stroke-width="3"/>
  <path d="M75,10 Q90,10 90,25" fill="none" stroke="url(#goldGrad)" stroke-width="3"/>
  <path d="M90,75 Q90,90 75,90" fill="none" stroke="url(#goldGrad)" stroke-width="3"/>
  <path d="M25,90 Q10,90 10,75" fill="none" stroke="url(#goldGrad)" stroke-width="3"/>
  <!-- Decoración superior e inferior -->
  <line x1="30" y1="10" x2="70" y2="10" stroke="url(#goldGrad)" stroke-width="3"/>
  <line x1="30" y1="90" x2="70" y2="90" stroke="url(#goldGrad)" stroke-width="3"/>
  <!-- Iniciales GA -->
  <text x="50" y="58" font-family="Georgia, 'Times New Roman', serif" font-size="30" font-weight="bold" fill="url(#goldGrad)" text-anchor="middle" letter-spacing="3">GA</text>
  <!-- Pequeño diamante decorativo -->
  <polygon points="50,22 54,26 50,30 46,26" fill="url(#goldGrad)"/>
  <polygon points="50,70 54,74 50,78 46,74" fill="url(#goldGrad)"/>
  <!-- Nombre completo -->
  <text x="110" y="42" font-family="Georgia, 'Times New Roman', serif" font-size="32" font-weight="bold" fill="#B8860B" letter-spacing="2">G.A.</text>
  <text x="110" y="68" font-family="Georgia, 'Times New Roman', serif" font-size="14" fill="#5C5650" letter-spacing="4">ANTIGÜEDADES</text>
</svg>
